<svg width="1000" height="1200" viewBox="0 0 1000 1200" fill="none" xmlns="http://www.w3.org/2000/svg">
<rect width="1000" height="1200" rx="30" fill="url(#paint0_linear_12_6)"/>
<path d="M53.1832 322V262.364H76.7116C81.2348 262.364 85.0883 263.228 88.272 264.955C91.4557 266.664 93.8823 269.042 95.5518 272.089C97.2408 275.118 98.0852 278.612 98.0852 282.572C98.0852 286.533 97.2311 290.027 95.5227 293.055C93.8144 296.084 91.3393 298.442 88.0973 300.131C84.8748 301.82 80.9728 302.665 76.3913 302.665H61.3949V292.56H74.353C76.7796 292.56 78.7791 292.143 80.3516 291.308C81.9434 290.454 83.1276 289.28 83.9041 287.785C84.7 286.271 85.098 284.533 85.098 282.572C85.098 280.592 84.7 278.865 83.9041 277.389C83.1276 275.894 81.9434 274.739 80.3516 273.924C78.7597 273.089 76.7408 272.672 74.2947 272.672H65.7919V322H53.1832ZM106.275 322V262.364H118.884V288.658H119.67L141.131 262.364H156.244L134.113 289.066L156.506 322H141.422L125.086 297.482L118.884 305.053V322H106.275Z" fill="#333333"/>
<path d="M0 195H1000" stroke="black" stroke-width="7"/>
<defs>
<linearGradient id="paint0_linear_12_6" x1="500" y1="0" x2="500" y2="1200" gradientUnits="userSpaceOnUse">
<stop stop-color="#65F0F0"/>
<stop offset="1" stop-color="#FAFAFA"/>
</linearGradient>
</defs>
</svg>
