<svg width="175" height="120" viewBox="0 0 175 120" fill="none" xmlns="http://www.w3.org/2000/svg">
<path d="M1.74444 61.4824L84.874 0.612678L173.716 61.4822L84.8736 119.397L1.74444 61.4824Z" fill="white" stroke="black"/>
<path d="M76.386 62.192L77.376 61.158C78.938 61.774 80.852 62.83 81.864 63.622L80.852 64.744C79.84 63.952 77.926 62.83 76.386 62.192ZM73.988 66.372L74.978 65.206C77.904 65.998 81.512 67.472 83.514 68.572L82.524 69.892C80.588 68.704 76.958 67.208 73.988 66.372ZM76.826 49.52L78.454 49.806C77.376 52.204 75.704 54.866 73.174 56.956C72.932 56.626 72.404 56.142 72.052 55.922C74.384 54.052 76.012 51.544 76.826 49.52ZM76.54 51.83H82.524V53.282H75.814L76.54 51.83ZM82.04 51.83H82.37L82.656 51.764L83.69 52.336C81.776 57.044 77.75 60.388 73.68 62.17C73.482 61.796 72.976 61.158 72.646 60.872C76.606 59.288 80.456 56.164 82.04 52.138V51.83ZM76.254 53.084C78.036 56.538 81.6 59.706 85.406 61.092C85.054 61.4 84.57 62.016 84.328 62.434C80.456 60.828 76.914 57.44 74.934 53.59L76.254 53.084ZM68.29 49.542L69.742 50.114C68.906 51.72 67.872 53.678 67.014 54.888L65.87 54.36C66.706 53.106 67.718 50.994 68.29 49.542ZM70.754 52.05L72.14 52.666C70.644 55.196 68.532 58.386 66.904 60.322L65.892 59.75C67.52 57.77 69.588 54.426 70.754 52.05ZM64.814 54.162L65.65 53.084C66.882 54.118 68.268 55.548 68.862 56.538L67.982 57.792C67.388 56.758 66.002 55.218 64.814 54.162ZM69.984 57.154L71.128 56.692C72.008 58.078 72.888 59.926 73.174 61.092L71.92 61.664C71.656 60.476 70.82 58.584 69.984 57.154ZM64.748 59.398C66.662 59.332 69.412 59.222 72.206 59.068L72.184 60.432C69.544 60.608 66.882 60.762 64.88 60.894L64.748 59.398ZM70.556 62.346L71.744 61.972C72.36 63.204 72.954 64.876 73.174 65.976L71.898 66.416C71.7 65.316 71.106 63.622 70.556 62.346ZM65.98 62.104L67.41 62.368C67.102 64.436 66.552 66.57 65.848 67.978C65.562 67.802 64.902 67.494 64.55 67.34C65.276 65.998 65.716 64.04 65.98 62.104ZM68.356 60.014H69.83V69.826H68.356V60.014ZM96.164 57.022H97.88V67.648C97.88 68.748 97.594 69.254 96.736 69.496C95.878 69.76 94.404 69.782 92.182 69.782C92.072 69.298 91.764 68.594 91.5 68.11C93.326 68.176 95.02 68.176 95.526 68.154C96.01 68.132 96.164 68 96.164 67.604V57.022ZM88.156 51.258H104.04V52.864H88.156V51.258ZM103.446 51.258H103.886L104.282 51.148L105.558 52.072C103.6 54.404 100.498 57 97.77 58.54C97.528 58.188 97 57.638 96.648 57.396C99.156 56.01 102.06 53.48 103.446 51.654V51.258Z" fill="black"/>
</svg>
