<svg width="175" height="120" viewBox="0 0 175 120" fill="none" xmlns="http://www.w3.org/2000/svg">
<path d="M1.74444 61.4824L84.874 0.612678L173.716 61.4822L84.8736 119.397L1.74444 61.4824Z" fill="white" stroke="black"/>
<path d="M69.522 59.266H80.434V60.63H69.522V59.266ZM69.104 63.028H80.896V64.436H69.104V63.028ZM76.43 59.706H77.926V69.364H76.43V59.706ZM71.92 59.772H73.35V63.776C73.35 65.118 72.822 68 70.336 69.672C70.116 69.364 69.61 68.902 69.236 68.682C71.458 67.318 71.92 64.986 71.92 63.776V59.772ZM66.794 53.524H72.976V54.712H66.794V53.524ZM76.936 53.524H83.162V54.712H76.936V53.524ZM82.524 50.466H84.152V67.626C84.152 68.616 83.932 69.144 83.272 69.43C82.612 69.716 81.512 69.738 79.84 69.738C79.774 69.298 79.554 68.528 79.312 68.066C80.522 68.11 81.71 68.11 82.062 68.088C82.414 68.088 82.524 67.956 82.524 67.626V50.466ZM66.926 50.466H73.988V57.88H66.926V56.626H72.426V51.742H66.926V50.466ZM83.316 50.466V51.742H77.508V56.648H83.316V57.902H75.924V50.466H83.316ZM65.936 50.466H67.564V69.782H65.936V50.466ZM97.616 67.296H105.294V68.792H97.616V67.296ZM96.758 60.85H106.152V69.694H104.524V62.368H98.342V69.782H96.758V60.85ZM95.262 57.154C97.858 57.022 101.95 56.802 105.866 56.538L105.844 58.012C102.126 58.298 98.188 58.606 95.46 58.782L95.262 57.154ZM102.544 53.612L103.864 52.93C105.338 54.756 106.856 57.22 107.45 58.848L105.998 59.64C105.47 57.99 103.996 55.482 102.544 53.612ZM99.552 49.52L101.356 49.894C100.454 52.578 99.2 55.944 98.166 58.034L96.758 57.638C97.748 55.504 98.936 51.984 99.552 49.52ZM86.946 54.074H94.206V55.636H86.946V54.074ZM90.29 49.52L91.874 49.696C90.972 54.096 89.564 60.036 88.53 63.71L87.166 62.962C88.156 59.618 89.52 53.7 90.29 49.52ZM88.046 62.302L88.97 61.136C91.434 62.522 94.36 64.634 95.68 66.262L94.668 67.604C93.37 65.954 90.51 63.732 88.046 62.302ZM93.568 54.074H93.854L94.14 54.03L95.13 54.228C94.536 62.742 92.16 67.406 88.112 69.826C87.87 69.43 87.43 68.836 87.078 68.506C90.73 66.57 93.04 61.884 93.568 54.426V54.074Z" fill="black"/>
</svg>
